<?xml version="1.0" encoding="utf-8"?>
<svg fill="none" viewBox="0 0 877 968" xmlns="http://www.w3.org/2000/svg">
  <g clip-path="url(#a)">
    <circle cx="391" cy="391" r="390.5" transform="matrix(-1 0 0 1 416 -56)" style="fill-rule: nonzero; paint-order: fill; stroke: rgba(32, 97, 255, 0.61);"/>
    <circle cx="468" cy="468" r="467.5" opacity=".3" transform="matrix(-1 0 0 1 493 -133)" style="fill-rule: nonzero; stroke: rgb(32, 141, 255);"/>
    <circle cx="558" cy="558" r="557.5" opacity=".1" transform="matrix(-1 0 0 1 583 -223)" style="fill-rule: nonzero; stroke: rgb(32, 42, 255);"/>
    <g filter="url(#b)">
      <ellipse cx="583" cy="229.5" rx="583" ry="229.5" transform="matrix(-1 0 0 1 621 -9)" style="fill-rule: nonzero; fill: rgba(32, 67, 255, 0.804);"/>
    </g>
    <g filter="url(#c)">
      <ellipse cx="262" cy="184.5" rx="262" ry="184.5" transform="matrix(-1 0 0 1 99 42)" style="fill-rule: nonzero;" fill="#fff"/>
    </g>
  </g>
  <defs>
    <filter id="b" width="1614" height="907" x="-769" y="-233" color-interpolation-filters="sRGB" filterUnits="userSpaceOnUse">
      <feFlood flood-opacity="0" result="BackgroundImageFix"/>
      <feBlend in="SourceGraphic" in2="BackgroundImageFix" result="shape"/>
      <feGaussianBlur result="effect1_foregroundBlur_3089_39042" stdDeviation="112"/>
    </filter>
    <filter id="c" width="972" height="817" x="-649" y="-182" color-interpolation-filters="sRGB" filterUnits="userSpaceOnUse">
      <feFlood flood-opacity="0" result="BackgroundImageFix"/>
      <feBlend in="SourceGraphic" in2="BackgroundImageFix" result="shape"/>
      <feGaussianBlur result="effect1_foregroundBlur_3089_39042" stdDeviation="112"/>
    </filter>
    <clipPath id="a">
      <path fill="#fff" d="M877 0H0v968h877z"/>
    </clipPath>
  </defs>
</svg>